<svg viewBox="0 0 56 56" fill="none" xmlns="http://www.w3.org/2000/svg"><rect x="4" y="4" width="48" height="48" rx="6" fill="#1a2a4a" stroke="#38bdf8" stroke-width="1.5"/><path d="M18 16.75H38C39.7949 16.75 41.25 18.2051 41.25 20V24.5C41.25 26.2949 39.7949 27.75 38 27.75H18C16.2051 27.75 14.75 26.2949 14.75 24.5V20C14.75 18.2051 16.2051 16.75 18 16.75Z" stroke="#38bdf8" stroke-width="1.5"/><path d="M18 32.25H29.5C31.2949 32.25 32.75 33.7051 32.75 35.5V36C32.75 39.4518 29.9518 42.25 26.5 42.25H18C16.2051 42.25 14.75 40.7949 14.75 39V35.5C14.75 33.7051 16.2051 32.25 18 32.25Z" stroke="#38bdf8" stroke-width="1.5"/><path d="M35.5 32L41.5 36L35.5 40V32Z" fill="#38bdf8"/></svg>